<svg id="Capa_1" data-name="Capa 1" xmlns="http://www.w3.org/2000/svg" viewBox="0 0 550.79 114.74"><defs><style>.cls-1{fill:#ed3b27;}</style></defs><title>Tandem Text</title><path class="cls-1" d="M475.07,67.83c-1.69,13.62-3.56,27.21-5,40.86-.49,4.67-2.26,6.56-6.95,6.1-3-.3-6.06,0-9.09,0-8.53,0-8.62,0-7.67-8.8.93-8.6,2-17.19,3.14-25.78.47-3.66,1.42-7.36-1.94-10.27-.7-.61-1.28-1.22-.34-2,7.87-6.5,5-16,6.53-24.22C456,31.59,457,19.25,458.18,7c.5-5,2.42-6.91,7.74-6.83,16.2.22,16.18,0,21.18,15.55,3.7,11.52,7.47,23,11.25,34.65,2.65-.79,3-3.12,4-4.83C510.13,32,518,18.55,525.48,4.9c1.94-3.53,4.2-5.12,8.18-4.67a66.88,66.88,0,0,0,7.14,0c12,.07,10.39-.91,9.15,10.66-1.64,15.27-3.86,30.48-5.73,45.73-.47,3.78-1.71,7.83,2,10.88,1.17,1,.9,1.6-.25,2.36-4.41,2.9-4.37,7.6-4.9,12.11-1.09,9.24-2.4,18.46-3.37,27.71-.4,3.85-2.24,4.94-5.91,5.1-18.58.79-18.6.87-16.54-17.55.58-5.16,1.37-10.29,2-15.44a71.65,71.65,0,0,0,.67-15.35c-3.92,6.67-7.86,13.32-11.75,20-2.73,4.68-16.14,7.8-20.59,4.7-1.93-1.34-2.09-3.71-2.83-5.71C480.53,79.55,479.39,73.2,475.07,67.83Z"/><path class="cls-1" d="M199.38,64.32c-1.81,14.8-3.72,29.6-5.35,44.42-.46,4.18-1.92,6-6.41,6.11-18.88.54-18.83.67-16.13-18.26.92-6.42.81-13.09,2.56-19.25,1.22-4.28-4.49-6.93-2-9.65a16.34,16.34,0,0,0,4.17-9.78c2.05-16.52,4.36-33,6.14-49.56.64-6,2.47-8.52,9.14-8.26,15.14.59,15.14.19,19.39,15.09,3.29,11.51,6.63,23,10,34.5l1.62-.12c1.8-13.75,4-27.48,5.22-41.28.58-6.34,2.72-8.34,9.14-8.17,16.47.43,16.34.1,14,16.73-2,14.34-3.67,28.73-5.48,43.1,0,.21-.17.5-.08.63,5.56,8.59-3.06,15.25-3.19,23.19-.15,8.6-1.87,17.18-2.84,25.77-.4,3.57-2.05,5.1-5.88,5.28-17.61.86-17.58,1-22.51-16.23-3.31-11.55-6.71-23.07-10.06-34.61Z"/><path class="cls-1" d="M403.49.07c9.53,0,19.05.11,28.58-.06,4.15-.07,5.63,1.18,5.36,5.65-1.1,18.26-1,18.27-18.8,18.27-8,0-16,.08-24-.05-3.05-.05-4.94.73-5.32,4.09-.9,8-1.84,15.9-3,23.82-.56,3.87,1,5.12,4.59,4.77a46.15,46.15,0,0,1,5.19,0c13.62.25,12.07-2.25,10.78,12.16-.19,2.15-.83,4.29-.83,6.43,0,4.29-2.25,5.67-6.15,5.59-4.11-.09-8.26.3-12.33-.09-5.32-.5-5.25,3-5.59,6.52-.47,4.8,3.19,3.14,5.29,3.17q16.88.24,33.77,0c4.24-.05,6,1.33,5.12,5.78A89.19,89.19,0,0,0,424.47,109c-.22,4.6-2.57,5.75-6.71,5.73-19.05-.11-38.1-.16-57.15,0-4.8,0-6-1.88-5.41-6.29q1.9-13.16,3.36-26.38c.45-4.15,2.25-8.65-1.68-12.23-1.72-1.56-.1-2.22.77-2.91,3-2.38,3.64-5.74,4.08-9.22,2.14-17.17,4.47-34.31,6.3-51.52.51-4.77,2.3-6.3,6.89-6.19C384.43.24,394,.08,403.49.07Z"/><path class="cls-1" d="M3,1.84C4.37-.68,6.81.33,8.78.32,27.6.23,46.43.38,65.25.2c4.77,0,6.37,1,5.71,6.3-2.13,17.1-1.9,17.24-19.37,17.45-4,0-5.71,1-6.09,5.29-.81,9.25-2.41,18.43-3.41,27.66-.43,3.95-1.22,7.87,2.1,11.68.71.81-4.55,5.45-4.93,9.86-.9,10.32-2.61,20.57-3.64,30.89-.41,4.12-2.09,5.41-6.14,5.51-18.6.48-18.59.59-16.32-17.49.81-6.43,1-13,2.53-19.27,1.15-4.79-5.38-8.86.51-14.61,3.34-3.26,2.32-11,3.12-16.81.77-5.57,1-11.22,2.1-16.72,1-5.22-.95-6.6-5.71-6a43.72,43.72,0,0,1-5.84,0C-.68,24-.9,24,.78,13.81c.66-4,0-8.27,2.19-12"/><path class="cls-1" d="M158.53,22.43C160,10.63,152.76,1.26,140.87.52A219.07,219.07,0,0,0,111.7.68c-11.35.81-19.6,8.61-21.95,19.8-1.06,5.06-1.08,10.36-2.31,15.36-2.66,10.79,1.23,23.22-8,32.38-.65.65-.13,1.14.32,1.54,4.53,3.9,2.34,8.83,1.87,13.37-.91,8.81-2.21,17.58-3.25,26.38-.24,2.07-.82,4.93,2.35,5,6.46.2,13.45,1.34,19.25-.69,4.24-1.49,2.54-8.45,3.31-13,.25-1.49.56-3,.75-4.48,2.1-16.49,2.09-16.39,18.36-15.53,3.4.18,4.65,1.11,4.15,4.55-.84,5.77-1.33,11.6-2.17,17.37-1.74,12-1.79,12,10.52,12a23.18,23.18,0,0,1,3.89,0c6.35,1.08,8.84-1.6,9.27-8,.59-8.83,2-17.6,3.13-26.39.48-3.86.61-7.9,4.42-10.29,1.3-.81,2.09-1.41.42-2.7-3.36-2.6-2.38-6.24-2-9.61C155.51,46,157.1,34.24,158.53,22.43ZM132.46,38.82c-.32,3.65-1.23,7.28-1.31,10.92-.12,5.52-2.47,7.82-8,6.83a22.37,22.37,0,0,0-3.88,0c-10.69,0-10.64,0-9.07-10.5.8-5.34,1.55-10.69,2-16.07.35-4.34,2.41-6,6.68-6C137.81,24.25,133.93,22.06,132.46,38.82Z"/><path class="cls-1" d="M324.18.41c-6.91-.28-13.84,0-20.76,0v0c-6.27,0-12.58.42-18.81-.12s-8.12,2.08-8.73,7.94c-1.79,17.19-4.26,34.3-6.23,51.48-.47,4.08-2.6,6.7-5.54,9,3.37,2.79,3.53,6.36,3,10.39-1.36,10.06-2.27,20.18-3.72,30.23-.57,3.95.29,5.61,4.48,5.57,13.62-.14,27.26.24,40.87-.19,13.83-.45,23.76-8.14,25.55-20.5q5.24-36.23,9.1-72.66C344.7,9.11,336.73.91,324.18.41Zm-6.71,40C316,54,314,67.49,312.44,81c-1.32,11.53-1.18,11.54-12.57,11.54a20.84,20.84,0,0,0-3.25,0c-5.78.92-6.88-1.59-6.12-7,2.55-18,4.79-36,6.87-54.09.51-4.41,2.24-5.62,6.57-5.6C319,26,319.1,25.84,317.47,40.45Z"/></svg>